<svg t="1661238339987" class="icon" viewBox="0 0 1024 1024" version="1.1" xmlns="http://www.w3.org/2000/svg" p-id="12174" width="500" height="500"><path d="M767.989248 186.19634l-69.815436 0 0-23.272495c0-12.852708-10.419786-23.271471-23.272495-23.271471s-23.272495 10.418762-23.272495 23.271471l0 23.272495L372.369128 186.19634l0-23.272495c0-12.852708-10.418762-23.271471-23.271471-23.271471s-23.271471 10.418762-23.271471 23.271471l0 23.272495L256.010752 186.19634c-64.160121 0-116.358377 52.198256-116.358377 116.358377l0 372.347625c0 64.160121 52.198256 116.359401 116.358377 116.359401l511.978497 0c64.160121 0 116.359401-52.19928 116.359401-116.359401L884.348649 302.554717C884.348649 238.394595 832.14937 186.19634 767.989248 186.19634zM837.804684 674.902342c0 38.496687-31.318749 69.815436-69.815436 69.815436L256.010752 744.717778c-38.496687 0-69.815436-31.318749-69.815436-69.815436L186.195316 302.554717c0-38.496687 31.318749-69.815436 69.815436-69.815436l69.815436 0 0 46.542941c0 12.852708 10.418762 23.271471 23.271471 23.271471s23.271471-10.418762 23.271471-23.271471l0-46.542941 279.260719 0 0 46.542941c0 12.852708 10.419786 23.271471 23.272495 23.271471s23.272495-10.418762 23.272495-23.271471l0-46.542941L767.989248 232.739281c38.496687 0 69.815436 31.318749 69.815436 69.815436L837.804684 674.902342z" p-id="12175" fill="currentColor"></path><path d="M360.711378 372.370152 290.896966 372.370152c-12.852708 0-23.271471 10.418762-23.271471 23.271471s10.418762 23.271471 23.271471 23.271471l69.815436 0c12.852708 0 23.271471-10.418762 23.271471-23.271471S373.564086 372.370152 360.711378 372.370152z" p-id="12176" fill="currentColor"></path><path d="M546.907718 372.370152l-69.815436 0c-12.852708 0-23.271471 10.418762-23.271471 23.271471s10.418762 23.271471 23.271471 23.271471l69.815436 0c12.852708 0 23.272495-10.418762 23.272495-23.271471S559.760426 372.370152 546.907718 372.370152z" p-id="12177" fill="currentColor"></path><path d="M733.105082 372.370152 663.289646 372.370152c-12.852708 0-23.272495 10.418762-23.272495 23.271471s10.419786 23.271471 23.272495 23.271471l69.815436 0c12.852708 0 23.272495-10.418762 23.272495-23.271471S745.95779 372.370152 733.105082 372.370152z" p-id="12178" fill="currentColor"></path><path d="M360.711378 465.457059 290.896966 465.457059c-12.852708 0-23.271471 10.418762-23.271471 23.271471s10.418762 23.271471 23.271471 23.271471l69.815436 0c12.852708 0 23.271471-10.418762 23.271471-23.271471S373.564086 465.457059 360.711378 465.457059z" p-id="12179" fill="#8a8a8a"></path><path d="M546.907718 465.457059l-69.815436 0c-12.852708 0-23.271471 10.418762-23.271471 23.271471s10.418762 23.271471 23.271471 23.271471l69.815436 0c12.852708 0 23.272495-10.418762 23.272495-23.271471S559.760426 465.457059 546.907718 465.457059z" p-id="12180" fill="#8a8a8a"></path><path d="M733.105082 465.457059 663.289646 465.457059c-12.852708 0-23.272495 10.418762-23.272495 23.271471s10.419786 23.271471 23.272495 23.271471l69.815436 0c12.852708 0 23.272495-10.418762 23.272495-23.271471S745.95779 465.457059 733.105082 465.457059z" p-id="12181" fill="#8a8a8a"></path><path d="M360.711378 558.543965 290.896966 558.543965c-12.852708 0-23.271471 10.419786-23.271471 23.272495s10.418762 23.272495 23.271471 23.272495l69.815436 0c12.852708 0 23.271471-10.419786 23.271471-23.272495S373.564086 558.543965 360.711378 558.543965z" p-id="12182" fill="#8a8a8a"></path><path d="M546.907718 558.543965l-69.815436 0c-12.852708 0-23.271471 10.419786-23.271471 23.272495s10.418762 23.272495 23.271471 23.272495l69.815436 0c12.852708 0 23.272495-10.419786 23.272495-23.272495S559.760426 558.543965 546.907718 558.543965z" p-id="12183" fill="#8a8a8a"></path><path d="M733.105082 558.543965 663.289646 558.543965c-12.852708 0-23.272495 10.419786-23.272495 23.272495s10.419786 23.272495 23.272495 23.272495l69.815436 0c12.852708 0 23.272495-10.419786 23.272495-23.272495S745.95779 558.543965 733.105082 558.543965z" p-id="12184" fill="currentColor"></path></svg>