<svg
  t="1650865149347"
  class="icon"
  viewBox="0 0 1024 1024"
  version="1.1"
  xmlns="http://www.w3.org/2000/svg"
  p-id="8086"
  width="500"
  height="500"
><path
    d="M741.12 305.737143H276.114286L511.817143 528.457143z"
    fill="#000000"
    p-id="8087"
  /><path
    d="M524.8 566.857143a18.651429 18.651429 0 0 1-25.417143 0.182857l-62.72-59.245714L256 668.525714v49.737143h512v-49.737143l-181.577143-161.645714L524.8 566.857143zM256 337.005714v282.514286l153.965714-136.96zM768 619.52V330.788571l-155.245714 150.491429z"
    fill="#000000"
    p-id="8088"
  /><path
    d="M512 9.142857C234.24 9.142857 9.142857 234.24 9.142857 512S234.24 1014.857143 512 1014.857143 1014.857143 789.76 1014.857143 512 789.76 9.142857 512 9.142857z m292.571429 727.405714c0 10.057143-8.228571 18.285714-18.285715 18.285715H237.714286c-10.057143 0-18.285714-8.228571-18.285715-18.285715V287.451429c0-10.057143 8.228571-18.285714 18.285715-18.285715h548.571428c10.057143 0 18.285714 8.228571 18.285715 18.285715v449.097142z"
    fill="#000000"
    p-id="8089"
  /></svg>
