<svg
  t="1650864913131"
  class="icon"
  viewBox="0 0 2303 1024"
  version="1.1"
  xmlns="http://www.w3.org/2000/svg"
  p-id="6194"
  width="500"
  height="500"
><path
    d="M767.58643 128.206785v767.58643H0V128.206785h767.58643zM128.206785 255.58643v512h255.58643V383.793215h128.206785v383.793215h128.206785V255.58643H128.206785z"
    fill="#000000"
    p-id="6195"
  /><path
    d="M1406.966074 128.206785v767.58643h-255.586429v128.206785H639.379645V128.206785h767.586429zM767.58643 255.58643v639.379644h255.586429V767.58643h255.58643V255.58643H767.58643z m255.586429 128.206785h128.206786v255.58643h-128.206786V383.793215z"
    fill="#000000"
    p-id="6196"
  /><path
    d="M1278.759289 894.966074V128.206785h1023.17286v767.58643H1278.759289z m128.206785-639.379644v512H1662.552504V383.793215h128.206785v383.793215H1918.966074V383.793215h128.206785v383.793215H2175.379645V255.58643h-768.413571z"
    fill="#000000"
    p-id="6197"
  /></svg>
