<svg
  t="1659523442727"
  class="icon"
  viewBox="0 0 1179 1024"
  version="1.1"
  xmlns="http://www.w3.org/2000/svg"
  p-id="12588"
><path
    d="M432.872727 377.018182c0-62.836364-51.2-111.709091-111.709091-111.709091-62.836364 0-111.709091 51.2-111.709091 111.709091s51.2 111.709091 111.709091 111.709091c60.509091 2.327273 111.709091-48.872727 111.709091-111.709091z m-179.2 0c0-37.236364 30.254545-65.163636 65.163637-65.163637s65.163636 30.254545 65.163636 65.163637-30.254545 65.163636-65.163636 65.163636-65.163636-27.927273-65.163637-65.163636z"
    fill=""
    p-id="12589"
  /><path
    d="M344.436364 677.236364l211.781818-130.327273 190.836363 114.036364c6.981818 4.654545 16.290909 4.654545 23.272728 0l169.890909-104.727273c6.981818-4.654545 11.636364-11.636364 11.636363-20.945455V251.345455c2.327273-60.509091-46.545455-111.709091-109.381818-111.709091H181.527273C118.690909 139.636364 69.818182 190.836364 69.818182 251.345455v521.30909C69.818182 833.163636 118.690909 884.363636 181.527273 884.363636h660.945454c60.509091 0 111.709091-48.872727 111.709091-111.709091V674.909091c0-13.963636-9.309091-23.272727-23.272727-23.272727s-23.272727 9.309091-23.272727 23.272727v97.745454c0 34.909091-30.254545 65.163636-65.163637 65.163637H181.527273C146.618182 837.818182 116.363636 807.563636 116.363636 772.654545V251.345455C116.363636 216.436364 146.618182 186.181818 181.527273 186.181818h660.945454c34.909091 0 65.163636 30.254545 65.163637 65.163637v269.963636l-146.618182 90.763636-190.836364-114.036363c-6.981818-4.654545-16.290909-4.654545-23.272727 0l-223.418182 137.309091c-11.636364 6.981818-13.963636 20.945455-6.981818 32.581818 2.327273 11.636364 16.290909 13.963636 27.927273 9.309091z"
    fill=""
    p-id="12590"
  /></svg>
