<svg
  class="_a6en"
  viewBox="0 0 38 38"
  fill="none"
  xmlns="http://www.w3.org/2000/svg"
><path
    opacity="0.4"
    fill-rule="evenodd"
    clip-rule="evenodd"
    d="M19 37C9.05887 37 1 28.9411 1 19C1 9.05887 9.05887 1 19 1C28.9411 1 37 9.05887 37 19C37 28.9411 28.9411 37 19 37Z"
    stroke="currentColor"
  /><path
    class="_a7uj"
    d="M21.9657 12L28.9287 18.963L21.9657 25.926L20.7348 24.7193L25.6203 19.8334L10.0001 19.8334V18.0926L25.5966 18.0926L20.7348 13.2309L21.9657 12Z"
    fill="currentColor"
  /><path
    class="_a7uk"
    d="M21.9657 12L28.9287 18.963L21.9657 25.926L20.7348 24.7193L25.6203 19.8334L10.0001 19.8334V18.0926L25.5966 18.0926L20.7348 13.2309L21.9657 12Z"
    fill="currentColor"
  /></svg>
